# xmcd
#
# Track frame offsets: 
#        150
#        27402
#        45516
#        63912
#        83053
#        94284
#        116861
#        126198
#        144900
#        165245
#        190096
#        215847
#
# Disc length: 3657 seconds
#
# Revision: 0
# Processed by: cddbd v1.5.2PL0 Copyright (c) Steve Scherf et al.
# Submitted via: ExactAudioCopyFreeDBPlugin 1.0
#
DISCID=a30e470c
DTITLE=Flatbush Zombies - 3001: A Laced Odyssey
DYEAR=2016
DGENRE=Hip-Hop
TTITLE0=The Odyssey
TTITLE1=Bounce
TTITLE2=R.I.P.C.D
TTITLE3=A Spike Lee Joint (feat. Anthony Flammia)
TTITLE4=Fly Away
TTITLE5=Ascension
TTITLE6=Smoke Break (Interlude)
TTITLE7=Trade-Off
TTITLE8=Good Grief (feat. Diamante)
TTITLE9=New Phone, Who Dis?
TTITLE10=This Is It
TTITLE11=Your Favorite Rap Song
EXTD=
EXTT0=
EXTT1=
EXTT2=
EXTT3=
EXTT4=
EXTT5=
EXTT6=
EXTT7=
EXTT8=
EXTT9=
EXTT10=
EXTT11=
PLAYORDER=
